<svg viewBox="0 0 50 50" xmlns="http://www.w3.org/2000/svg"><path d="m37.492188 0c-5.231001 0-9.704407 2.6689687-11.566407 6.5429688l-.001953.0019531c-.591 1.231-.923828 2.574375-.923828 3.9843751 0 2.103.739234 4.059984 1.990234 5.708984.658.86 1.465969 1.647985 2.417969 2.333985-.01.036-.055656 1.41589-.722656 2.33789l-.513672.708985c-.205.283-.229453.652031-.064453.957031.165.306.495516.498047.853516.498047h.896484c1.79 0 2.775203-.566547 3.783203-1.185547l1.359375-1.072266c.643.091 1.763297.183594 2.404297.183594 8.147 0 12.595703-4.790703 12.595703-10.470703 0-5.8470001-5.611813-10.529297-12.507812-10.529297zm0 2c5.793999 0 10.507812 3.8262969 10.507812 8.529297 0 5.146-4.159703 8.470703-10.595703 8.470703-.509 0-1.522-.077109-2.125-.162109-.093-.013-.186297-.021485-.279297-.021485-.446 0-.883281.149688-1.238281.429688l-1.267578.998047c-.568.347-1.014938.594609-1.585938.724609.307-.771.437281-1.561547.488281-2.185547.075-.706-.231312-1.408984-.820312-1.833984-.774-.558-1.447141-1.205922-1.994141-1.919922-1.035-1.366-1.582031-2.922-1.582031-4.5 0-1.0450001.234219-2.073547.699219-3.060547.01-.019.020297-.0405469.029297-.0605469 1.579-3.286 5.411671-5.4082031 9.763672-5.4082031zm-37.492188 6v36h50v-26.849609c-.547.821-1.221 1.582343-2 2.277343v17.53711l-13.121094-10.375c.625-.545 2.516875-2.267344 4.046875-3.652344-.495.034-.996484.0625-1.521484.0625-.43 0-.997156-.032125-1.535156-.078125-3.195 2.825-7.088203 6.333703-7.533203 6.720703-1.409 1.226-2.801938 1.359375-3.335938 1.359375s-1.925937-.132375-3.335938-1.359375c-1.4-1.219-17.541062-15.285719-19.664062-17.136719v-2.505859h21.029297c.033-.674.113531-1.343.269531-2zm32.5 1c-.828 0-1.5.672-1.5 1.5s.672 1.5 1.5 1.5 1.5-.672 1.5-1.5-.672-1.5-1.5-1.5zm5 0c-.828 0-1.5.672-1.5 1.5s.672 1.5 1.5 1.5 1.5-.672 1.5-1.5-.672-1.5-1.5-1.5zm5 0c-.828 0-1.5.672-1.5 1.5s.672 1.5 1.5 1.5 1.5-.672 1.5-1.5-.672-1.5-1.5-1.5zm-40.5 6.152344c3.184895 2.775255 8.720537 7.600592 13.121094 11.435547l-13.121094 10.376953zm14.654297 12.773437c1.016334.885642 3.450549 3.006229 3.699219 3.222657 1.918 1.67 3.888484 1.849609 4.646484 1.849609s2.729484-.179609 4.646484-1.849609c.372-.324001 1.785266-1.553704 3.697266-3.220704l14.65625 11.585938v2.486328h-46v-2.486328z"/></svg>