<svg viewBox="0 0 50 50" xmlns="http://www.w3.org/2000/svg"><path d="m25 0c-2.199219 0-4 1.800781-4 4 0 .515625.101563 1.015625.28125 1.46875-5.625 1.460938-9.28125 6.347656-9.28125 12.53125 0 7.832031-1.921875 11.398438-3.75 13.40625-.914062 1.003906-1.816406 1.613281-2.59375 2.1875-.390625.285156-.746094.570313-1.0625.9375-.316406.367188-.59375.890625-.59375 1.46875 0 1.375.84375 2.542969 2.03125 3.3125s2.746094 1.265625 4.625 1.65625c2.4375.503906 5.445313.769531 8.75.90625-.25.664063-.40625 1.378906-.40625 2.125 0 3.300781 2.699219 6 6 6s6-2.699219 6-6c0-.75-.152344-1.464844-.40625-2.125 3.304688-.136719 6.3125-.402344 8.75-.90625 1.878906-.390625 3.4375-.886719 4.625-1.65625s2.03125-1.9375 2.03125-3.3125c0-.578125-.277344-1.101562-.59375-1.46875-.316406-.367187-.671875-.652344-1.0625-.9375-.777344-.574219-1.679687-1.183594-2.59375-2.1875-1.828125-2.007812-3.75-5.574219-3.75-13.40625 0-6.179687-3.664062-11.0625-9.28125-12.53125.179688-.453125.28125-.953125.28125-1.46875 0-2.199219-1.800781-4-4-4zm0 2c1.117188 0 2 .882813 2 2 0 1.117188-.882812 2-2 2-1.117187 0-2-.882812-2-2 0-1.117187.882813-2 2-2zm2.34375 5.1875c5.332031.949219 8.65625 5.070313 8.65625 10.8125 0 8.167969 2.078125 12.363281 4.25 14.75 1.085938 1.191406 2.183594 1.9375 2.90625 2.46875.359375.265625.628906.488281.75.625s.09375.125.09375.15625c0 .625-.289062 1.082031-1.125 1.625-.835937.542969-2.195312 1.046875-3.9375 1.40625-3.484375.722656-8.445312.96875-13.9375.96875-5.492187 0-10.453125-.246094-13.9375-.96875-1.742187-.359375-3.101562-.863281-3.9375-1.40625-.835937-.542969-1.125-1-1.125-1.625 0-.03125-.027344-.019531.09375-.15625s.390625-.359375.75-.625c.722656-.53125 1.820313-1.277344 2.90625-2.46875 2.171875-2.386719 4.25-6.582031 4.25-14.75 0-5.738281 3.328125-9.828125 8.65625-10.78125.664063.488281 1.464844.78125 2.34375.78125.886719 0 1.679688-.316406 2.34375-.8125zm-5.78125 34.75c1.121094.023438 2.261719.0625 3.4375.0625s2.316406-.039062 3.4375-.0625c.355469.601563.5625 1.3125.5625 2.0625 0 2.222656-1.777344 4-4 4s-4-1.777344-4-4c0-.757812.199219-1.460937.5625-2.0625z"/></svg>