<svg viewBox="0 0 50 50" xmlns="http://www.w3.org/2000/svg"><path d="m12 3c-1.644531 0-3 1.355469-3 3v2.832031c-.019531.109375-.019531.21875 0 .324219v30.675781c-.019531.109375-.019531.21875 0 .324219v3.84375c0 1.644531 1.355469 3 3 3h20c1.644531 0 3-1.355469 3-3v-3.832031c.019531-.109375.019531-.21875 0-.324219v-7.84375h9c1.640625 0 3-1.355469 3-3v-11.902344c0-1.695312-1.394531-3.097656-3.09375-3.097656h-8.90625v-4.832031c.019531-.109375.019531-.21875 0-.324219v-2.84375c0-1.644531-1.355469-3-3-3zm0 2h20c.554688 0 1 .445313 1 1v2h-22v-2c0-.554687.445313-1 1-1zm-1 5h22v4h-7.90625c-1.699219 0-3.09375 1.402344-3.09375 3.097656v11.902344c0 1.644531 1.359375 3 3 3h1.871094c-.046875.328125-.042969.789063-.136719 1-.179687.425781-.449219.742188-1.113281 1.140625-.386719.234375-.570313.695313-.449219 1.128906.121094.433594.515625.730469.964844.730469 2.230469 0 4.996094-1.042969 6.425781-4h.4375v7h-22zm14.09375 6h8.738281c.109375.019531.21875.019531.324219 0h9.75c.605469 0 1.09375.488281 1.09375 1.097656v11.902344c0 .664063-.339844 1-1 1h-12c-.417969 0-.796875.261719-.9375.65625-.558594 1.523438-1.445312 2.308594-2.433594 2.773438.25-.746094.371094-1.515625.371094-2.429688 0-.550781-.449219-1-1-1h-3c-.660156 0-1-.335937-1-1v-11.902344c0-.609375.488281-1.097656 1.09375-1.097656zm9.90625 2c-.550781 0-1 .449219-1 1 0 .058594.003906.121094.015625.179688-1.171875.410156-2.015625 1.511718-2.015625 2.820312v3c0 .550781-.449219 1-1 1v1h3c0 .550781.449219 1 1 1s1-.449219 1-1h3v-1c-.550781 0-1-.449219-1-1v-3c0-1.3125-.84375-2.414062-2.015625-2.824219.007813-.058593.015625-.117187.015625-.175781 0-.550781-.449219-1-1-1zm-24 23h22v3c0 .554688-.445312 1-1 1h-20c-.554687 0-1-.445312-1-1zm8 1c-.359375-.003906-.695312.183594-.878906.496094-.179688.3125-.179688.695312 0 1.007812.183594.3125.519531.5.878906.496094h6c.359375.003906.695313-.183594.878906-.496094.179688-.3125.179688-.695312 0-1.007812-.183593-.3125-.519531-.5-.878906-.496094z"/></svg>